<?xml version="1.0" standalone="no"?>
<!DOCTYPE svg PUBLIC "-//W3C//DTD SVG 20010904//EN"
 "http://www.w3.org/TR/2001/REC-SVG-20010904/DTD/svg10.dtd">
<svg version="1.0" xmlns="http://www.w3.org/2000/svg"
 width="200.000000pt" height="200.000000pt" viewBox="0 0 200.000000 200.000000"
 preserveAspectRatio="xMidYMid meet">

<g transform="translate(0.000000,200.000000) scale(0.100000,-0.100000)"
fill="#f8406d" stroke="none">
<path d="M499 1649 c-22 -8 -32 -27 -67 -127 -22 -64 -63 -182 -92 -262 -28
-80 -80 -226 -115 -325 -35 -99 -88 -251 -119 -338 -31 -87 -58 -163 -62 -168
-7 -12 47 -32 57 -22 4 4 25 60 47 123 22 63 63 180 92 260 28 80 66 188 85
240 18 52 42 122 54 155 12 33 39 110 60 170 21 61 45 125 53 144 l14 35 11
-30 c7 -16 25 -71 41 -123 l30 -93 -146 -434 c-89 -266 -142 -438 -136 -443 5
-5 17 -11 28 -13 16 -3 35 46 149 385 71 213 133 387 137 387 4 0 11 -12 14
-27 4 -16 34 -113 68 -218 69 -218 117 -368 149 -473 23 -73 24 -74 53 -68 16
4 30 7 31 9 3 3 112 318 163 470 26 75 49 137 52 137 3 0 13 -26 24 -58 19
-59 165 -474 193 -549 10 -28 22 -43 33 -43 14 0 550 177 556 183 2 2 -27 90
-30 95 -2 1 -108 -34 -237 -78 -128 -43 -236 -76 -240 -72 -3 4 -46 120 -94
257 -48 138 -101 286 -116 330 -16 44 -29 89 -29 99 0 20 48 166 59 178 3 4
27 -48 52 -115 25 -67 90 -240 144 -383 l99 -262 25 11 c14 6 27 12 29 12 3 2
-48 140 -238 640 -20 55 -45 121 -55 147 -19 51 -28 62 -62 72 -18 6 -23 2
-31 -26 -6 -18 -31 -91 -55 -163 -25 -71 -79 -227 -120 -345 -86 -248 -131
-375 -144 -409 -9 -22 -14 -12 -43 80 -17 57 -43 136 -55 174 -13 39 -44 138
-70 220 -25 83 -50 161 -55 175 -10 27 -121 379 -142 448 -7 23 -15 42 -18 41
-3 0 -17 -5 -31 -10z"/>
</g>
</svg>
